<svg width="16" height="17" viewBox="0 0 16 17" fill="none" xmlns="http://www.w3.org/2000/svg">
<path d="M9.6204 13.0467C9.49374 13.0467 9.36707 13 9.26707 12.9C9.07374 12.7067 9.07374 12.3867 9.26707 12.1933L12.9604 8.49999L9.26707 4.80665C9.07374 4.61332 9.07374 4.29332 9.26707 4.09999C9.4604 3.90665 9.7804 3.90665 9.97374 4.09999L14.0204 8.14665C14.2137 8.33999 14.2137 8.65999 14.0204 8.85332L9.97374 12.9C9.87374 13 9.74707 13.0467 9.6204 13.0467Z" fill="#111827"/>
<path d="M13.553 9H2.33301C2.05967 9 1.83301 8.77333 1.83301 8.5C1.83301 8.22667 2.05967 8 2.33301 8H13.553C13.8263 8 14.053 8.22667 14.053 8.5C14.053 8.77333 13.8263 9 13.553 9Z" fill="#111827"/>
</svg>
