<svg width="24" height="24" viewBox="0 0 24 24" fill="none" xmlns="http://www.w3.org/2000/svg">
<path d="M12.9007 2.52003L12.8707 2.59003L9.97068 9.32003H7.12068C6.44068 9.32003 5.79068 9.46003 5.20068 9.71003L6.95068 5.53003L6.99068 5.43003L7.06068 5.27003C7.08068 5.21003 7.10068 5.15003 7.13068 5.10003C8.44068 2.07003 9.92068 1.38003 12.9007 2.52003Z" stroke="#292D32" stroke-width="1.5" stroke-linecap="round" stroke-linejoin="round"/>
<path d="M18.2907 9.52002C17.8407 9.38002 17.3607 9.32002 16.8807 9.32002H9.9707L12.8707 2.59002L12.9007 2.52002C13.0507 2.57002 13.1907 2.64002 13.3407 2.70002L15.5507 3.63002C16.7807 4.14002 17.6407 4.67002 18.1607 5.31002C18.2607 5.43002 18.3407 5.54002 18.4107 5.67002C18.5007 5.81002 18.5707 5.95002 18.6107 6.10002C18.6507 6.19002 18.6807 6.28002 18.7007 6.36002C18.9707 7.20002 18.8107 8.23002 18.2907 9.52002Z" stroke="#292D32" stroke-width="1.5" stroke-linecap="round" stroke-linejoin="round"/>
<path d="M12.0005 22H8.10049C7.86049 22 7.62049 21.98 7.39049 21.95C4.21049 21.74 2.51049 20.04 2.30049 16.86C2.27049 16.63 2.25049 16.39 2.25049 16.15V14.2C2.25049 12.19 3.47049 10.46 5.21049 9.71001C5.81049 9.46001 6.45049 9.32001 7.13049 9.32001H16.8905C17.3805 9.32001 17.8605 9.39001 18.3005 9.52001C20.3005 10.12 21.7605 11.99 21.7605 14.19V16.14C21.7605 16.34 21.7505 16.54 21.7405 16.74C21.5505 20.24 19.6005 22 15.9005 22" stroke="#292D32" stroke-width="1.5" stroke-linecap="round" stroke-linejoin="round"/>
<path d="M6.95072 5.53003L5.20072 9.71003C3.46072 10.46 2.24072 12.19 2.24072 14.2V11.27C2.24072 8.43003 4.26072 6.06003 6.95072 5.53003Z" stroke="#292D32" stroke-width="1.5" stroke-linecap="round" stroke-linejoin="round"/>
<path d="M21.7603 11.27V14.2C21.7603 12 20.3003 10.13 18.3003 9.52998C18.8203 8.22998 18.9703 7.20998 18.7203 6.35998C18.7003 6.26998 18.6703 6.17998 18.6303 6.09998C20.4903 7.05998 21.7603 9.02998 21.7603 11.27Z" stroke="#292D32" stroke-width="1.5" stroke-linecap="round" stroke-linejoin="round"/>
</svg>
