<svg width="24" height="24" viewBox="0 0 24 24" fill="none" xmlns="http://www.w3.org/2000/svg">
<path d="M6.70093 9.26001L12.0009 12.33L17.2609 9.28001" stroke="#292D32" stroke-width="1.5" stroke-linecap="round" stroke-linejoin="round"/>
<path d="M12.001 17.7701V12.3201" stroke="#292D32" stroke-width="1.5" stroke-linecap="round" stroke-linejoin="round"/>
<path d="M6.23096 10.3C6.23096 9.47 6.82093 8.45999 7.55093 8.05999L10.7509 6.28C11.4309 5.9 12.5509 5.9 13.2409 6.28L16.4409 8.05999C17.1609 8.45999 17.761 9.47 17.761 10.3V13.69C17.761 14.52 17.1709 15.53 16.4409 15.93L13.2409 17.71C12.5609 18.09 11.4409 18.09 10.7509 17.71L7.55093 15.93C7.19093 15.73 6.86094 15.38 6.62094 14.97" stroke="#292D32" stroke-width="1.5" stroke-linecap="round" stroke-linejoin="round"/>
<path d="M22.001 15C22.001 18.87 18.871 22 15.001 22L16.051 20.25" stroke="#292D32" stroke-width="1.5" stroke-linecap="round" stroke-linejoin="round"/>
<path d="M2.00098 9C2.00098 5.13 5.13098 2 9.00098 2L7.95099 3.75" stroke="#292D32" stroke-width="1.5" stroke-linecap="round" stroke-linejoin="round"/>
</svg>
